<svg width="30" height="30" viewBox="0 0 30 30" fill="none" xmlns="http://www.w3.org/2000/svg">
<path d="M0.937476 6.56245H29.0624C29.58 6.56245 29.9999 6.14242 29.9999 5.62498C29.9999 5.10745 29.5799 4.6875 29.0624 4.6875H0.937476C0.420033 4.6875 0 5.10745 0 5.62498C0 6.1425 0.420033 6.56245 0.937476 6.56245Z" fill="white"/>
<path d="M29.0624 14.0625H0.937476C0.419955 14.0625 0 14.4825 0 15C0 15.5174 0.420033 15.9375 0.937476 15.9375H29.0624C29.58 15.9375 29.9999 15.5174 29.9999 15C29.9999 14.4825 29.58 14.0625 29.0624 14.0625Z" fill="white"/>
<path d="M29.0624 23.4375H0.937476C0.419955 23.4375 0 23.8575 0 24.375C0 24.8925 0.420033 25.3125 0.937476 25.3125H29.0624C29.58 25.3125 29.9999 24.8924 29.9999 24.375C30 23.8575 29.58 23.4375 29.0624 23.4375Z" fill="white"/>
</svg>
