<svg width="28" height="28" viewBox="0 0 28 28" fill="none" xmlns="http://www.w3.org/2000/svg">
<path d="M0.874977 6.12495H27.1249C27.608 6.12495 27.9999 5.73292 27.9999 5.24998C27.9999 4.76696 27.6079 4.375 27.1249 4.375H0.874977C0.392031 4.375 0 4.76696 0 5.24998C0 5.733 0.392031 6.12495 0.874977 6.12495Z" fill="white"/>
<path d="M27.1249 13.125H0.874977C0.391958 13.125 0 13.517 0 14C0 14.4829 0.392031 14.875 0.874977 14.875H27.1249C27.608 14.875 27.9999 14.4829 27.9999 14C27.9999 13.517 27.608 13.125 27.1249 13.125Z" fill="white"/>
<path d="M27.1249 21.875H0.874977C0.391958 21.875 0 22.267 0 22.75C0 23.233 0.392031 23.625 0.874977 23.625H27.1249C27.608 23.625 27.9999 23.2329 27.9999 22.75C28 22.267 27.608 21.875 27.1249 21.875Z" fill="white"/>
</svg>
